# xmcd
#
# Track frame offsets:
#	150
#	16493
#	38408
#	63429
#	79454
#	102470
#	123536
#	142350
#	158219
#	185985
#	202691
#	214357
#	231206
#	253892
#
# Disc length: 3771 seconds
# Revision: 4
# Processed by: cddbd v1.5.2PL0 Copyright (c) Steve Scherf et al.
# Submitted via: dBpowerAMP V12.0
#
DISCID=d60eb90e
DTITLE=Chicago Blues Reunion - Buried Alive in the Blues
DYEAR=2005
DGENRE=Blues
TTITLE0=Born In Chicago
TTITLE1=Buried Alive In The Blues
TTITLE2=Walk Away
TTITLE3=Drinkin' Wine
TTITLE4=GM Boogie
TTITLE5=Left Handed Soul
TTITLE6=I'm Gonna Miss You Like The Devil
TTITLE7=I Need All the Help I Can Get
TTITLE8=Death Of Muddy Waters
TTITLE9=I've Gotta Find My Baby
TTITLE10=New Truck
TTITLE11=I'm A King Bee
TTITLE12=Snake
TTITLE13=Hound Dog - Roll Over Beehoven
EXTD=
EXTT0=
EXTT1=
EXTT2=
EXTT3=
EXTT4=
EXTT5=
EXTT6=
EXTT7=
EXTT8=
EXTT9=
EXTT10=
EXTT11=
EXTT12=
EXTT13=
PLAYORDER=
